<?xml version="1.0" encoding="utf-8"?>
<!-- Generator: Adobe Illustrator 25.0.0, SVG Export Plug-In . SVG Version: 6.00 Build 0)  -->
<svg version="1.1" xmlns="http://www.w3.org/2000/svg" xmlns:xlink="http://www.w3.org/1999/xlink" x="0px" y="0px"
	 viewBox="0 0 2850 1900" style="enable-background:new 0 0 2850 1900;" xml:space="preserve">
<style type="text/css">
	.st0{display:none;}
	.st1{display:inline;}
	.st2{fill:#A0A0A0;}
	.st3{fill:#6C6D6D;}
	.st4{fill:#0099FF;}
</style>
<g id="BG_1_">
</g>
<g id="graphics">
	<g class="st0">
		<g class="st1">
			<path class="st2" d="M1126.3,1332.34v73.62h-9.45v-73.62h-26.94v-9.1h63.45v9.1H1126.3z"/>
			<path class="st2" d="M1250.01,1405.95v-36.39h-49.87v36.39h-9.45v-82.71h9.45v37.34h49.87v-37.34h9.45v82.71H1250.01z"/>
			<path class="st2" d="M1317.6,1332.34v27.18h41.71v9.1h-41.71v28.36h48.21v8.98h-57.66v-82.71h56.13v9.1H1317.6z"/>
			<path class="st2" d="M1443.55,1323.24c16.66,0,26.71,7.68,26.71,20.68c0,9.69-5.55,16.66-15.24,18.67
				c11.93,1.77,18.91,9.57,18.91,20.92c0,14.06-11.11,22.45-29.78,22.45h-35.45v-82.71H1443.55z M1418.15,1358.92h24.93
				c11.11,0,17.61-4.84,17.61-13.47c0-8.39-6.5-13.12-17.61-13.12h-24.93V1358.92z M1418.15,1396.97h24.93
				c13.47,0,21.27-5.32,21.27-14.77c0-8.98-7.8-14.3-21.27-14.3h-24.93V1396.97z"/>
			<path class="st2" d="M1516.93,1405.95v-82.71h9.45v82.71H1516.93z"/>
			<path class="st2" d="M1612.05,1379.6c-1.77,0.12-3.66,0.24-5.55,0.24h-21.98v26.11h-9.45v-82.71h31.43
				c20.68,0,32.61,10.16,32.61,27.77c0,13.71-6.62,22.92-18.55,26.82l19.38,28.12h-10.75L1612.05,1379.6z M1606.49,1370.74
				c15.01,0,23.52-6.62,23.52-19.5c0-12.53-8.51-18.91-23.52-18.91h-21.98v38.4H1606.49z"/>
			<path class="st2" d="M1717.56,1323.24c24.11,0,42.54,17.84,42.54,41.36s-18.55,41.36-42.89,41.36h-33.09v-82.71H1717.56z
				 M1693.57,1396.97h24.11c18.43,0,32.85-13.83,32.85-32.26c0-18.55-14.65-32.38-33.2-32.38h-23.75V1396.97z"/>
		</g>
	</g>
	<g class="st0">
		<g class="st1">
			<path class="st3" d="M1208.71,1494.9v-46.36h2.62v46.36H1208.71z"/>
			<path class="st3" d="M1251.63,1494.9h-2.56v-8.69c-2.06,5.62-6.62,8.69-13.06,8.75c-7.87,0-12.43-4.75-12.43-12.75v-19.87h2.56
				v19.37c0,6.69,3.87,10.62,10.44,10.62c7.87-0.19,12.5-5.56,12.5-14.06v-15.93h2.56V1494.9z"/>
			<path class="st3" d="M1283.94,1462.35h2.94l-11.37,15.75l12.18,16.81h-3l-10.87-14.81l-10.93,14.81h-3l12.31-16.81l-11.37-15.75
				h3l10.06,13.81L1283.94,1462.35z"/>
			<path class="st3" d="M1323.12,1494.9h-2.56v-8.69c-2.06,5.62-6.62,8.69-13.06,8.75c-7.87,0-12.43-4.75-12.43-12.75v-19.87h2.56
				v19.37c0,6.69,3.87,10.62,10.43,10.62c7.87-0.19,12.5-5.56,12.5-14.06v-15.93h2.56V1494.9z"/>
			<path class="st3" d="M1338.8,1470.53c2.06-5.25,6.31-8.12,12.12-8.25v2.69c-7.19,0-11.56,4.75-12.12,12.31v17.62h-2.62v-32.55
				h2.62V1470.53z"/>
			<path class="st3" d="M1367.86,1499.59c-2,4.87-5.19,7.5-9,7.5c-2.37,0-4.5-0.62-6.19-1.88l1.12-2.25c1.44,1,3.12,1.5,4.94,1.5
				c2.94,0,5.44-2.06,7-5.87l1.5-3.69l-13.43-32.55h2.75l12,29.49l11.68-29.49h2.75L1367.86,1499.59z"/>
			<path class="st3" d="M1428.47,1488.47c-2.75,4.5-7.37,6.5-13,6.5c-6.44,0-10.75-4.06-10.75-9.56c0-5.44,4.62-8.75,12.12-8.75
				h11.56v-3.19c-0.06-5.5-3.25-8.81-9.75-8.81c-4.06,0-7.5,1.62-10.93,4.25l-1.25-2c3.87-2.81,7.62-4.62,12.56-4.62
				c7.69,0,11.87,4.25,11.94,11l0.12,21.62h-2.56L1428.47,1488.47z M1428.47,1484.28v-5.31h-11.37c-6.37,0-9.87,2.19-9.87,6.37
				c0,4.31,3.31,7.25,8.62,7.25C1421.91,1492.59,1426.47,1489.97,1428.47,1484.28z"/>
			<path class="st3" d="M1475.46,1478.66c0,9.5-6.5,16.31-15.68,16.31c-6.37,0-11.37-3.31-13.81-8.56v8.5h-2.62v-46.36h2.62v22.37
				c2.44-5.31,7.44-8.62,13.81-8.62C1468.9,1462.29,1475.46,1469.1,1475.46,1478.66z M1472.9,1478.66c0-8.06-5.62-13.93-13.5-13.93
				c-7.81,0-13.43,5.87-13.43,13.93s5.62,13.87,13.43,13.87C1467.27,1492.53,1472.9,1486.72,1472.9,1478.66z"/>
			<path class="st3" d="M1501.95,1464.85l-1.12,2.12c-2.25-1.44-5.12-2.31-8.25-2.31c-4.56,0-8.12,1.75-8.12,5.62
				c0,8.75,19,4.44,19,15.93c0,6.06-5.44,8.75-11.31,8.75c-4.56,0-8.94-1.62-11.93-4.5l1.19-2c2.81,2.62,6.75,4.12,10.87,4.12
				c4.56,0,8.5-1.81,8.69-5.94c0.25-9.19-19-5-19-16.18c0-5.69,4.94-8.19,10.69-8.19
				C1496.27,1462.29,1499.39,1463.29,1501.95,1464.85z"/>
			<path class="st3" d="M1527.57,1492.65c-2.06,1.44-4.37,2.31-6.81,2.31c-4.62,0.06-7.37-2.94-7.37-9.06v-20.5h-4.75v-2.25h4.75
				v-8.06h2.5v8.06h11.06v2.25h-11.06v20.18c0,4.62,1.81,6.87,5.19,6.81c1.88,0,3.81-0.69,5.5-1.88L1527.57,1492.65z"/>
			<path class="st3" d="M1538.13,1470.53c2.06-5.25,6.31-8.12,12.12-8.25v2.69c-7.19,0-11.56,4.75-12.12,12.31v17.62h-2.62v-32.55
				h2.62V1470.53z"/>
			<path class="st3" d="M1576.5,1488.47c-2.75,4.5-7.37,6.5-13,6.5c-6.44,0-10.75-4.06-10.75-9.56c0-5.44,4.62-8.75,12.12-8.75
				h11.56v-3.19c-0.06-5.5-3.25-8.81-9.75-8.81c-4.06,0-7.5,1.62-10.94,4.25l-1.25-2c3.88-2.81,7.62-4.62,12.56-4.62
				c7.69,0,11.87,4.25,11.93,11l0.12,21.62h-2.56L1576.5,1488.47z M1576.5,1484.28v-5.31h-11.37c-6.37,0-9.87,2.19-9.87,6.37
				c0,4.31,3.31,7.25,8.62,7.25C1569.94,1492.59,1574.5,1489.97,1576.5,1484.28z"/>
			<path class="st3" d="M1615.12,1466.85l-1.5,1.88c-2.62-2.44-6-3.94-10.06-3.94c-7.81,0-13.43,5.69-13.43,13.81
				c0,8.25,5.62,13.93,13.43,13.93c4.38,0,8.12-1.62,10.62-4.56l1.56,1.69c-2.88,3.37-7.19,5.31-12.25,5.31
				c-9.18,0-15.93-6.75-15.93-16.31s6.75-16.37,15.93-16.37C1608.18,1462.29,1612.24,1463.97,1615.12,1466.85z"/>
			<path class="st3" d="M1641.3,1492.65c-2.06,1.44-4.37,2.31-6.81,2.31c-4.62,0.06-7.37-2.94-7.37-9.06v-20.5h-4.75v-2.25h4.75
				v-8.06h2.5v8.06h11.06v2.25h-11.06v20.18c0,4.62,1.81,6.87,5.19,6.81c1.88,0,3.81-0.69,5.5-1.88L1641.3,1492.65z"/>
		</g>
	</g>
	<g>
		<path class="st4" d="M1078.71,744.68C1253.6,550.16,1348.48,377.11,1343.09,31c148.09,118.61,315.49,311.81,402.19,483.34
			C1732.59,796.41,1350.12,864.05,1078.71,744.68z"/>
		<path class="st4" d="M1343.09,31c-18.18,338.77-150.82,524-264.37,713.68c21.77,9.58,40.22,19.71,55.83,30.09
			C1322.83,480.62,1365.37,311.04,1343.09,31z"/>
		<path class="st4" d="M1550.43,1869C922.9,1558.08,1034.71,866.89,572.21,836.39c35.58-86.4,137.23-106.73,228.71-106.73
			c30.49-83.88,97.46-137.23,254.12-106.73c68.09,13.26,157.72,74.38,307.54,68.64c157.4-6.04,574.26-222.96,639.19-660.57
			C2277.79,915.85,1003.42,1255.46,1550.43,1869z"/>
		<path class="st4" d="M1550.43,1869c-505.55-356.66-382.22-879.82-30.6-1134.22c242.43-175.4,469.14-335.13,481.93-703.78
			c467.81,563.24,294.3,972.48-171.65,1210.63C1479.42,1420.86,1471.79,1687.69,1550.43,1869"/>
	</g>
</g>
</svg>
